<?xml version="1.0" encoding="UTF-8"?>
<svg id="Capa_2" data-name="Capa 2" xmlns="http://www.w3.org/2000/svg" viewBox="0 0 48 48">
  <defs>
    <style>
      .cls-1 {
        fill: none;
      }

      .cls-2 {
        fill: #fd5a61;
      }
    </style>
  </defs>
  <g id="Capa_1-2" data-name="Capa 1">
    <g>
      <rect class="cls-1" width="48" height="48"/>
      <g>
        <path class="cls-2" d="M33.36,27.25c-.78-.02-2.02-.03-3.19-.04-1.18,0-1.4-.02-2.78-.04-1.38-.02-1.51-.03-3.01-.04-1.5,0-1.65-.02-3.08-.03-1.43,0-1.99,0-3.28.01-1.29.02-2.42.05-3.38.09v8.72c0,1.66.02,3.12.07,4.36s.11,2.32.18,3.22.16,1.65.26,2.26.22,1.12.34,1.53v.12h-7.05v-.12c.12-.41.23-.92.34-1.53s.2-1.36.28-2.26c.08-.9.14-1.97.18-3.22.04-1.24.06-2.7.06-4.36v-13.89c0-1.66-.02-3.12-.06-4.36-.04-1.24-.1-2.32-.18-3.23-.08-.91-.17-1.67-.28-2.28-.11-.61-.22-1.12-.34-1.53v-.12h7.05v.12c-.12.41-.23.92-.34,1.53-.11.61-.2,1.37-.26,2.28-.07.91-.13,1.99-.18,3.23s-.07,2.7-.07,4.36v2.29c1.02.04,2.17.06,3.47.07,1.29.01,1.84.01,3.25,0,1.41,0,1.54-.02,3-.04,1.46-.02,1.56-.04,2.92-.07,1.36-.03,1.58-.06,2.76-.1,1.18-.04,2.46-.08,3.32-.12v-2.02c0-1.66-.02-3.12-.07-4.36-.05-1.24-.11-2.32-.18-3.23-.07-.91-.16-1.67-.26-2.28-.11-.61-.22-1.12-.34-1.53v-.12h7.05v.12c-.12.41-.23.92-.34,1.53-.11.61-.2,1.37-.28,2.28-.08.91-.14,1.99-.18,3.23s-.06,2.7-.06,4.36v13.89c0,1.66.02,3.12.06,4.36s.1,2.32.18,3.22.17,1.65.28,2.26.22,1.12.34,1.53v.12h-7.05v-.12c.12-.41.23-.92.34-1.53.11-.61.2-1.36.26-2.26.07-.9.13-1.97.18-3.22.05-1.24.07-2.7.07-4.36v-8.66Z"/>
        <path class="cls-2" d="M37.38.88c.43.19.81.44,1.13.75.32.31.58.68.76,1.11.19.43.28.9.28,1.41,0,1.02-.34,1.87-1.03,2.56s-1.54,1.03-2.56,1.03c-.49,0-.95-.1-1.38-.28s-.81-.44-1.13-.76c-.32-.32-.58-.7-.76-1.13-.19-.43-.28-.9-.28-1.41,0-.51.09-.98.28-1.41.19-.43.44-.8.76-1.11.32-.31.7-.56,1.13-.75s.89-.28,1.38-.28.98.09,1.41.28Z"/>
        <path class="cls-2" d="M13.41.88c.43.19.81.44,1.13.75.32.31.58.68.76,1.11.19.43.28.9.28,1.41,0,1.02-.34,1.87-1.03,2.56s-1.54,1.03-2.56,1.03c-.49,0-.95-.1-1.38-.28s-.81-.44-1.13-.76c-.32-.32-.58-.7-.76-1.13-.19-.43-.28-.9-.28-1.41,0-.51.09-.98.28-1.41.19-.43.44-.8.76-1.11.32-.31.7-.56,1.13-.75s.89-.28,1.38-.28.98.09,1.41.28Z"/>
      </g>
    </g>
  </g>
</svg>