<svg xmlns="http://www.w3.org/2000/svg" viewBox="0 0 127.1 32.1" fill="#fff">
  <path d="M99.7 10c2.1.3 3.5 1.8 3.2 4.9-.7 7.4-7.2 15.1-16.7 14.9h-.3c9.4 0 15.2-7.8 15.9-14.8.3-2.7-1-4.1-2.8-4.4-2.7-.4-6 1.3-8 4.1 0 .1 0 0 0 0 2.1-3.2 5.8-5 8.8-4.5m19.2-.3c6.4.4 8.2 5 8.1 7.6-.1 6.8-5.4 11.6-14.5 12.2h-.3c8.5-.7 13.7-6.1 13.8-12.9 0-2.3-1.5-6.3-7-6.8h-.2ZM85.4 2.5c.9 1.2-.2 3.8-.9 5.5l-5.2 13.7c-.4.9-.8 1.9-.9 3-.2 2.6 2 4.8 6.4 5h.1c-5.2-.2-7.6-2.7-7.4-5.5 0-1.1.4-2 .8-2.8 0-.1 5.2-13.6 5.2-13.6 0-.2.1-.3.2-.5v-.2s.1-.2.2-.2v-.2c.6-1.5 1.1-2.9.3-3.8 0-.1 1.2-.4 1.2-.4M118 9.8c-7.9.7-13.7 6.2-13.8 12.9 0 2.3 1.6 6.4 7 6.8h.2c-6.4-.4-8.2-5.1-8.2-7.6.1-6.8 5.9-11.7 14.8-12.2m-19.8 1.2c1.7.2 2.8 1.5 2.5 3.9-.6 6.5-6.4 14.6-14.5 14.8H86c7.4-.5 13.1-8.8 13.7-14.8.2-2.1-.8-3.2-2.2-3.4-2.1-.3-4.7 1.1-6.3 3.3 1.8-2.6 4.7-4.1 7.1-3.8m20.6-.9c4.9.4 6.4 3.9 6.4 6.1-.1 6.6-5.1 12.8-12.6 13.5h-.2c6.8-.7 11.8-7.6 11.9-14.1 0-1.9-1.4-4.9-5.3-5.3h-.1Zm-31-8c.8 1.1-.6 4.3-1.2 5.7L81 22.4c-.4.9-.9 2.2-1 3.3-.2 2.1 1.6 3.7 4.9 3.9-4-.1-6-2-5.8-4.4 0-1.1.5-2.2.9-3.1 0-.1 5.5-14.4 5.5-14.4.6-1.5 1.8-4.1 1-5.4 0-.1 1.3-.4 1.3-.4Zm30.1 8c-6.6.7-11.8 7.8-11.9 14.2 0 1.9 1.1 4.9 5.3 5.3h.1c-4.9-.3-6.4-4-6.3-6.1 0-6.6 5.5-12.9 12.8-13.5M90.4 1.5c.4 1.2-1.3 5.1-1.6 6s-6.1 15.7-6.1 15.7c-.4.9-.9 2.4-1 3.5 0 1.2.5 2 1.7 2.4.8.3 1.4.4 1.7.4-2.8-.2-4.4-1.4-4.2-3.3 0-1 .6-2.4 1-3.3l5.9-15.4c.4-1 2-4.6 1.4-5.6 0-.1 1.2-.4 1.2-.4m28.5 8.6c3.4.4 4.5 2.8 4.5 4.5-.1 6.3-4.8 14-10.7 14.7h-.2c5.2-.7 9.8-9.1 9.9-15.4 0-1.5-.9-3.4-3.5-3.8m-22.2 1.7c1.2.2 2 1.1 1.9 2.9-.5 5.4-5.5 13.7-12.3 14.6h-.2C92.3 28 97 19.5 97.5 14.6c.1-1.5-.5-2.3-1.6-2.4-1.5-.2-3.3.8-4.6 2.5 1.4-2 3.7-3.2 5.5-3M40.7 4.5c.7.5 1.4 1.2 2.1 4.5 0 .1 4.4 20.4 4.4 20.4h-1L41.9 9.3c-.6-2.8-1.4-4.1-3-4.7h1.8Zm3.3 0v.3c.1.8.3 1.7.8 3.9 0 .1 4.4 20.7 4.4 20.7h-1L43.8 8.9c-.6-2.4-.8-3.5-1.5-4.4zm73.9 5.6c-5 .7-9.8 9.3-10 15.4 0 1.5.9 3.5 3.5 3.8-3.4-.3-4.5-2.9-4.5-4.6.1-6.2 5.1-14.1 10.9-14.7m-55.1 2.9c.5 0 .9.3.9.9 0 .5-.3 1.6-.7 2.7v.2l-.2.2c-.3.8-.7 1.6-.9 2.2l-4.1 10.3h-1l4.1-10.3c.5-1.3 1.9-4.4 1.9-5.3 0-.4-.2-.5-.5-.5-.7 0-2 1.8-2.9 3.7.8-2.1 2.2-4.2 3.5-4.2m1-.7c1 0 1.6.6 1.7 1.5 0 1.4-1 3.9-1.7 5.5l-4 10.2h-1l4-10.2c.6-1.5 1.8-4.3 1.7-5.5 0-.7-.5-1.2-1.3-1.2-1.8 0-3.2 2.2-4.1 4.4.8-2.5 2.5-4.9 4.7-4.9m2.2-1.3c2 0 3 1.3 3.1 2.9 0 1.8-.6 3.6-1.3 5.4v.3c-.1 0-.2.2-.2.2v.2l-3.8 9.8h-1l3.8-9.9c.7-1.9 1.6-4.1 1.5-6 0-1.5-1-2.5-2.8-2.5-3.6 0-5.7 2.8-6.6 6 .8-3.4 3.2-6.5 7.2-6.5m-1 .8c1.5 0 2.3.9 2.4 2.2 0 1.7-.9 4-1.6 5.7 0 .1-3.9 10.1-3.9 10.1h-1.1l3.9-10c.7-1.7 1.7-4.2 1.7-5.7 0-1.1-.8-1.9-2-1.9-2.6 0-4.4 2.5-5.3 5.2.9-2.9 2.8-5.7 6-5.7m11.6-1.4c1.3 0 2.4.8 2.4 2.6.2 3.7-3.1 6.7-6.8 7.3h-.1c3.1-.7 6.2-3.5 6.1-6.9 0-1.6-1-2.3-2.2-2.3-2.1 0-3.9 1.8-5.1 4.1v.4c1-2.2 2.7-3.8 4.5-3.8s1.8.7 1.9 2c.2 2.9-2.5 5.7-5.1 6.4 2.1-.8 4.5-3.5 4.4-6 0-1.1-.7-1.7-1.6-1.7-1.6 0-3 1.6-4 3.6v.5c.9-1.9 2.1-3.4 3.4-3.4s1.3.5 1.3 1.5c.1 2.1-1.8 4.7-3.5 5.5 1.3-.8 2.8-3.3 2.8-5.1 0-.7-.4-1.1-1-1.1-1 0-2.1 1.5-2.9 3.2 0 .3-.1.5-.2.8.7-1.7 1.8-3.4 2.5-3.4s.7.4.7.9c0 1.3-.9 3.7-1.9 4.6.8-1.4 1.2-3.1 1.1-4.1 0-.3-.1-.6-.5-.6S71.6 16 71 17.4v.2l-.1.2v.2c-.2.6-.4 1.2-.6 1.7v.2l-3.8 9.7h-1l3.7-9.8c.8-2.1 1.6-3.9 1.4-6.2 0-1.8-1.3-3.1-3.5-3.1-4.5 0-6.9 3.2-7.8 6.7v.1c.8-3.8 3.4-7.2 8.4-7.2s3.8 1.5 3.9 3.5v.9c1.2-2.5 3.3-4.4 5.6-4.4M93 .9c.3.4-2 6.1-2.2 6.6s-6.3 16.3-6.3 16.3c-.3.8-1 2.7-1.1 3.7 0 1 .7 1.6 1.7 1.7-1.5-.2-2.7-1-2.6-2.3 0-1 .7-2.6 1-3.5l6.2-16.1c.2-.4.6-1.6 1-2.8v-.2c.5-1.2.9-2.5.9-3.2 0-.1 1.3-.4 1.3-.4Zm25.8 9.3c2 .3 2.7 1.7 2.7 3-.1 6.1-4.5 15.2-8.8 16h-.1c3.5-.6 7.9-10.6 8-16.6 0-1.1-.5-1.9-1.7-2.3Zm-23.7 2.5c.8.1 1.3.8 1.2 1.9-.4 4.3-5.1 13.1-10.1 14.6H86c4.4-1.9 8.8-10.8 9.1-14.6 0-.8-.3-1.4-.9-1.4-.9-.1-2.1.6-3 1.7 1.1-1.5 2.7-2.4 3.9-2.2m22.8-2.5c-3.4.7-7.9 10.9-8 16.7 0 1.1.4 2.1 1.7 2.3-2.1-.2-2.7-1.8-2.7-3.1.1-6 4.8-15.4 9-16M95.7.4l-9.4 24.2c-.4.9-1.2 2.8-1.2 3.8 0 .4 0 .7.2.8h-.2c-.4-.2-.8-.7-.8-1.2 0-1 .8-2.8 1.1-3.7l6.4-16.7c0-.2.8-1.9 1.4-3.7v-.2c.6-1.5 1.2-2.9 1.1-3.1s1.3-.3 1.3-.3Zm-49 4.1c-.3.8-.4 2 .2 4.7 0 .1 3.7 17.5 3.7 17.5l-.7 1.4-4.1-19.2c-.4-1.9-.5-2.8-.6-3.7v-.6h1.4Zm2.8 0c-.9.8-1.1 2.3-.6 5 0 .1 3 14.4 3 14.4l-.7 1.4-3.3-15.9c-.5-2.7-.4-3.8 0-4.8s1.6 0 1.6 0Zm4.1 0c-2.5.5-3.3 1.9-2.6 5.2l2.2 11.4-.7 1.4-2.6-12.8c-.8-3.7.6-4.8 1.3-5.2s2.3 0 2.3 0Zm12.2 0c-3.8 1.2-5.5 3.4-8.5 8.9v.2h-.2c2.6-5.5 3.8-7.8 5.9-9s2.7 0 2.7 0m-4.5-.1c-.3.5-.6 1-.9 1.7-.7 1.5-1.5 3.4-3.1 7.2 0 .1 0 0 0 0 1.6-4.4 2.4-6.5 2.2-8.8 0-.2 2-.2 2-.2m-3.7.1c1.4 1.4.9 3.7-.6 8.8v.2H57c1.5-5.8 1-8-1.1-8.8h2ZM25.5 0H6.6C3 0 0 3 0 6.6v18.9c0 3.7 3 6.6 6.6 6.6h18.9c3.7 0 6.6-3 6.6-6.6V6.6c0-3.6-3-6.6-6.6-6.6M10.8 27.3 7 10c-.6-2.5-1.2-3.5-2.7-4.1s1.5 0 1.5 0c.6.4 1.3 1 1.9 4l3.8 17.5h-.9Zm1.7 0L8.7 9.7c-.5-2.1-.7-3-1.3-3.8s1.4 0 1.4 0c.1.9.2 1.5.8 3.8l3.8 17.7h-.9ZM14 26 10.4 9.5c-.5-2-.5-2.8-.5-3.7h1.2c-.2.7-.4 1.8.2 4.1l3.2 15-.6 1.2Zm1.1-2.3L12.2 10c-.5-2.4-.4-3.3 0-4.2h1.4c-.8.7-1 2-.5 4.4l2.6 12.3zm2.1-17.8c-2.2.4-2.8 1.6-2.3 4.4l1.9 9.8-.6 1.2-2.2-11c-.7-3.3.5-4.2 1.1-4.4h2Zm2.9 7.5c1.3-5 .8-6.9-1.1-7.6s1.7 0 1.7 0c1.2 1.2.8 3.2-.6 7.7Zm.1.1c1.4-3.8 2.1-5.7 1.9-7.7h1.7c-.9 1.4-1.4 2.7-3.6 7.8Zm7.6-7.7c-3.4 1-4.9 2.9-7.5 7.8 2.3-4.8 3.3-6.8 5.2-7.8h2.4Z"/>
</svg>
